<svg width="72" height="73" viewBox="0 0 72 73" fill="none" xmlns="http://www.w3.org/2000/svg">
<path d="M40.1287 62.3561C40.7615 62.4071 41.3939 62.4883 42.0274 62.4968C42.3565 62.5012 42.6981 62.4101 43.0157 62.3062C45.8217 61.3877 48.6884 60.7015 51.5856 60.1624C53.3034 59.8428 55.0455 59.6127 56.7871 59.4743C58.6431 59.327 60.5157 59.2285 62.3734 59.3012C65.0313 59.4051 67.6659 59.7726 70.0727 61.0348C70.5605 61.2907 71.0106 61.6452 71.4197 62.0183C72.0606 62.6029 72.1498 63.2938 71.7898 64.0947C71.3095 65.1632 70.4304 65.8539 69.5112 66.5001C68.0893 67.4998 66.5112 68.1987 64.8963 68.8129C61.6491 70.0479 58.2744 70.812 54.8619 71.3943C52.8796 71.7326 50.8755 71.9592 48.8741 72.1666C46.6396 72.3981 44.3989 72.5786 42.1573 72.729C40.5309 72.838 38.8991 72.8696 37.2692 72.921C36.0108 72.9608 34.7512 73.0152 33.4932 72.996C31.7073 72.9689 29.9186 72.9333 28.1381 72.8041C25.9916 72.6484 23.85 72.4137 21.7108 72.1726C17.5861 71.7076 13.5359 70.8787 9.60029 69.5439C7.29725 68.7628 5.06778 67.8125 3.07026 66.3952C1.72972 65.444 0.531463 64.3442 0.141049 62.6706C-0.250899 60.9905 0.165376 59.5609 1.49819 58.3709C3.01571 57.0158 4.90474 56.566 6.86179 56.3816C8.0808 56.2667 9.31505 56.1487 10.5322 56.2166C12.4475 56.3235 14.3597 56.5444 16.2627 56.7963C17.6576 56.9809 19.0446 57.2527 20.4191 57.5578C22.053 57.9205 23.6698 58.3609 25.2944 58.7659C25.3843 58.7883 25.4781 58.7951 25.6071 58.8435C25.4854 59.3062 25.3266 59.7346 25.1652 60.1698C25.3327 60.2788 25.4722 60.3697 25.5981 60.4967C25.3012 61.1767 25.0179 61.8204 24.6962 62.461C24.4522 62.5377 24.1786 62.5604 24.0547 62.7085C23.7502 63.0721 23.47 63.4717 23.2621 63.8969C22.9722 64.4896 23.0512 64.7137 23.6294 65.0288C25.4134 66.0011 27.2067 66.9566 29.0011 67.9097C29.4345 68.1399 29.792 67.9301 29.7399 67.4386C29.7149 67.2033 29.4978 66.9682 29.3227 66.7735C29.0163 66.433 28.6315 66.1568 28.3577 65.7946C27.7606 65.0051 27.2126 64.1784 26.6499 63.3335C26.728 63.1473 26.7855 62.985 26.8762 62.8439C27.1425 62.4293 27.422 62.0232 27.7292 61.6174C27.8778 61.6841 27.9934 61.7472 28.1086 61.8099C28.5715 61.1935 29.0139 60.6042 29.4934 60.0187C31.0625 60.4995 32.5907 60.9895 34.1286 61.447C34.7454 61.6306 35.3835 61.7429 36.0222 61.9282C36.0642 62.3792 36.0959 62.7896 36.1275 63.1986C36.3381 63.2127 36.5067 63.224 36.6743 63.2766C36.6966 64.1206 36.7201 64.9234 36.7085 65.7246C36.2374 65.7312 36.1325 66.0333 36.1188 66.3827C36.1011 66.8328 36.1037 67.2843 36.1146 67.7347C36.1263 68.2206 36.3078 68.3241 36.799 68.2902C37.4324 68.2465 38.0709 68.2463 38.706 68.2648C40.1921 68.308 41.6772 68.3865 43.1634 68.4123C43.331 68.4152 43.5783 68.2055 43.655 68.0345C43.7704 67.7774 43.6663 67.5126 43.3669 67.39C43.2237 67.3313 43.0782 67.248 42.9294 67.2376C41.7679 67.1563 40.8432 66.5123 39.8658 65.9846C39.4763 65.7742 39.0549 65.6228 38.6438 65.4037C38.6948 64.6527 38.7501 63.9426 38.8492 63.2239C39.2445 63.2154 39.5961 63.2154 39.9378 63.2154C40.0097 62.8917 40.0692 62.6239 40.1287 62.3561Z" fill="#B2E3E3"/>
<path d="M41.8486 25.6756C41.9774 28.7971 42.8157 31.7688 43.7255 34.7304C44.1768 36.1996 44.586 37.6854 44.9269 39.1836C45.1874 40.3285 45.1539 41.4821 44.3787 42.4756C43.8068 43.2085 42.9795 43.5349 42.0665 43.843C40.2383 44.2192 38.4673 44.4047 36.6335 44.2356C36.442 44.203 36.2883 44.1795 36.1345 44.1565C33.7393 43.7982 32.3658 42.5714 31.7908 40.2188C31.3676 38.4873 31.2666 36.7158 31.2379 34.9402C31.2261 34.2085 31.2259 33.4766 31.2256 32.7449C31.2255 32.4534 31.1515 32.2786 30.8141 32.1916C30.3543 32.0731 29.9213 31.8502 29.4729 31.6424C29.429 31.5687 29.3891 31.5247 29.3491 31.4807C29.7354 30.4385 30.0941 29.385 30.5196 28.3591C30.7278 27.8572 30.8495 27.3684 30.7858 26.7509C30.7353 26.3029 30.8209 26.0814 31.2632 26.0745C31.5515 26.07 31.836 25.9402 32.1259 25.886C32.6764 25.783 33.0001 25.44 33.0255 24.9047C33.0731 23.8989 33.1639 22.8787 33.0516 21.8854C32.8741 20.3153 32.5607 18.7593 32.2738 17.203C31.9868 15.6464 31.6617 14.0968 31.3533 12.5441C31.5508 12.4249 31.7483 12.3057 31.9852 12.2052C32.6258 14.3597 33.2399 16.492 33.8165 18.6344C33.9225 19.0284 34.0886 19.1171 34.4606 19.0714C35.3537 18.9618 36.2513 18.889 37.1462 18.7935C37.8483 18.7186 38.5491 18.6318 39.2794 18.5469C39.2503 18.4192 39.2425 18.3438 39.2161 18.2756C38.5769 16.6261 37.9329 14.9785 37.2998 13.3266C37.2423 13.1765 37.2528 13.0002 37.2318 12.8361C37.3625 12.952 37.4931 13.0679 37.662 13.2275C37.8114 13.4391 37.9298 13.6029 38.0329 13.7759C39.8846 16.8844 41.3656 20.1265 41.6376 23.8405C41.708 24.4771 41.7783 25.0764 41.8486 25.6756Z" fill="#4FC5C0"/>
<path d="M29.4778 31.6715C29.9223 31.8497 30.3553 32.0726 30.8151 32.1911C31.1525 32.2781 31.2265 32.4529 31.2266 32.7444C31.2269 33.4761 31.2271 34.208 31.2389 34.9396C31.2676 36.7153 31.3686 38.4868 31.7918 40.2183C32.3668 42.5709 33.7403 43.7977 36.1355 44.1559C36.2893 44.1789 36.443 44.2024 36.6184 44.2672C36.5273 45.2103 36.3934 46.1099 36.3069 47.0139C36.1784 48.3568 36.0392 49.6908 35.3566 50.8982C35.2852 51.0246 35.2934 51.196 35.2336 51.3502C35.1358 51.438 35.0619 51.5173 35.0037 51.607C33.7682 53.5122 32.5419 55.4234 31.2971 57.3226C30.7014 58.2315 30.0715 59.1179 29.457 60.0145C29.0146 60.6038 28.5721 61.1931 28.1093 61.8095C27.9941 61.7467 27.8784 61.6837 27.7103 61.5922C26.976 61.1959 26.2942 60.828 25.6124 60.4601C25.4729 60.3692 25.3333 60.2784 25.1659 60.1693C25.3272 59.7342 25.486 59.3058 25.6462 58.8433C26.3883 56.6863 27.1171 54.5592 27.8737 52.442C28.4065 50.9512 28.9837 49.4763 29.5241 47.9882C29.6111 47.7485 29.6524 47.4747 29.6415 47.2198C29.5679 45.4947 29.4745 43.7705 29.3859 41.961C29.3233 39.4126 29.2312 36.9493 29.2172 34.4855C29.2118 33.5481 29.3857 32.6095 29.4778 31.6715Z" fill="#515151"/>
<path d="M35.2639 51.3468C35.2927 51.1962 35.2844 51.0248 35.3559 50.8984C36.0384 49.6911 36.1776 48.3571 36.3061 47.0142C36.3927 46.1101 36.5266 45.2106 36.6554 44.2768C38.4676 44.4044 40.2386 44.2189 42.0346 43.8574C41.4963 49.3159 40.9208 54.7758 40.3441 60.2355C40.2723 60.9154 40.1943 61.5945 40.1238 62.3149C40.0691 62.6237 40.0096 62.8915 39.9377 63.2152C39.596 63.2152 39.2444 63.2152 38.8083 63.2148C38.041 63.2213 37.3581 63.2282 36.6752 63.2351C36.5066 63.2238 36.338 63.2125 36.1274 63.1984C36.0958 62.7894 36.0641 62.379 36.0256 61.8883C35.9879 61.6923 35.937 61.5779 35.9291 61.4606C35.8459 60.2246 35.7721 58.9879 35.6908 57.7518C35.5503 55.6166 35.4064 53.4818 35.2639 51.3468Z" fill="#4A4A4B"/>
<path d="M31.3246 12.5568C31.6623 14.0963 31.9874 15.6459 32.2744 17.2026C32.5613 18.7588 32.8747 20.3148 33.0522 21.885C33.1645 22.8783 33.0737 23.8984 33.0261 24.9043C33.0007 25.4395 32.677 25.7826 32.1265 25.8855C31.8366 25.9397 31.5521 26.0695 31.2638 26.0741C30.8215 26.081 30.7359 26.3025 30.7799 26.7078C30.7478 26.6924 30.6985 26.6369 30.7004 26.5832C30.7552 25.0344 30.2162 23.5754 30.0197 22.0649C29.9828 21.7812 29.931 21.4994 29.8861 21.2168C29.8443 21.2083 29.8025 21.1999 29.7607 21.1915C29.5758 21.7486 29.3153 22.2942 29.2282 22.8662C29.1472 23.3977 28.9295 23.56 28.3779 23.4565C27.3515 23.0402 26.3922 22.645 25.4302 22.2563C25.2626 22.1886 25.0839 22.1484 24.9103 22.0954C24.769 21.9449 24.6276 21.7943 24.4631 21.619C25.8115 17.9265 27.918 14.771 31.3246 12.5568Z" fill="#ECEDED"/>
<path d="M15.8378 7.63039C15.8026 6.94235 15.76 6.29444 15.7413 5.64583C15.7258 5.11016 15.831 4.99875 16.3839 4.98072C17.6992 4.93785 19.015 4.90778 20.3306 4.87789C20.7494 4.86837 21.1687 4.88454 21.5873 4.87238C21.8823 4.86381 22.003 4.98203 22.0093 5.28187C22.0249 6.02377 22.0639 6.76517 22.0964 7.54955C22.129 8.58235 22.1479 9.57283 22.1918 10.5622C22.2251 11.3156 22.1554 12.0206 21.7572 12.7035C21.0959 13.8376 20.5073 15.0141 19.8231 16.2005C19.5134 16.2472 19.2686 16.2661 19.0239 16.2851C18.607 15.6749 18.1773 15.073 17.7765 14.4524C17.3396 13.776 16.9086 13.0939 16.5169 12.391C16.3342 12.0632 16.1752 11.6885 16.1355 11.321C16.0275 10.3224 15.9912 9.31616 15.9211 8.31334C15.906 8.09815 15.8682 7.88455 15.8378 7.63039Z" fill="#C5C6CF"/>
<path d="M61.0584 53.6649C60.8736 53.7217 60.6892 53.8268 60.5041 53.828C58.0931 53.8434 55.682 53.8468 53.271 53.8466C52.6704 53.8466 52.4793 53.6503 52.3893 53.0574C52.0138 50.5827 51.6329 48.1088 51.2425 45.6364C51.2152 45.4639 51.1308 45.2721 51.0121 45.1471C50.3358 44.4349 50.3978 43.803 51.2253 43.2788C51.3812 43.1801 51.5573 43.1131 51.7578 43.0704C51.7965 43.785 51.7953 44.4608 51.8128 45.1361C51.8155 45.2415 51.9032 45.3447 51.9872 45.4729C53.1664 45.502 54.3099 45.5071 55.4964 45.5225C56.2586 45.5312 56.9776 45.5295 57.6933 45.5399C57.6898 45.552 57.6964 45.5763 57.6632 45.5906C57.4495 45.6218 57.2689 45.6388 57.0774 45.6568C57.0774 46.4946 57.0774 47.2948 57.0774 48.1307C59.3284 48.279 61.0683 47.5368 62.1191 45.4594C61.2695 47.8666 59.3092 48.4108 57.048 48.4523C57.048 50.1776 57.042 51.8405 57.0645 53.5029C57.0657 53.5929 57.3032 53.7523 57.4342 53.7561C58.2583 53.7798 59.0835 53.7793 59.908 53.7642C60.2919 53.7572 60.6749 53.6996 61.0584 53.6649Z" fill="#38A2A0"/>
<path d="M61.0617 53.6652C60.675 53.6993 60.292 53.7569 59.9081 53.7639C59.0836 53.779 58.2584 53.7795 57.4343 53.7558C57.3032 53.752 57.0658 53.5926 57.0645 53.5026C57.0421 51.8402 57.0481 50.1773 57.0481 48.452C59.3092 48.4104 61.2695 47.8663 62.1191 45.4591C61.0684 47.5364 59.3285 48.2787 57.0775 48.1304C57.0775 47.2945 57.0775 46.4943 57.0775 45.6565C57.269 45.6385 57.4496 45.6215 57.6992 45.5784C57.8182 45.5569 57.868 45.5614 57.9471 45.5848C58.4398 45.5857 58.9032 45.5677 59.4079 45.541C59.9396 45.5007 60.4318 45.4847 60.92 45.4322C61.2355 45.3983 61.5453 45.311 61.8921 45.2515C62.1156 45.2315 62.3047 45.2075 62.4937 45.1836C62.2838 46.8102 62.0803 48.4377 61.8617 50.0631C61.7317 51.0293 61.5805 51.9928 61.4321 52.9565C61.4067 53.1217 61.3473 53.2818 61.2586 53.4765C61.1902 53.5256 61.1722 53.5475 61.1597 53.5744C61.1597 53.5744 61.1592 53.5717 61.1421 53.5836C61.1016 53.6133 61.0819 53.6345 61.066 53.6593C61.066 53.6593 61.065 53.6658 61.0617 53.6652Z" fill="#50C7C1"/>
<path d="M35.5546 11.2004C35.6049 11.4662 35.6552 11.732 35.6687 12.0337C34.6892 11.8827 33.7464 11.6959 32.8037 11.5091C32.8464 10.5197 32.8891 9.5303 32.9485 8.4684C33.0176 8.12799 33.07 7.8601 33.1241 7.5832C32.4488 7.31334 32.1618 6.81905 32.1745 6.14787C32.1881 5.43181 32.6084 5.18914 33.2654 5.48129C33.3912 5.53723 33.6122 5.55525 33.7036 5.48273C34.1901 5.09667 34.664 4.68693 34.8247 4.03235C36.0558 4.58417 37.28 4.8035 38.5783 4.39822C38.638 5.45731 38.7712 6.48544 38.6941 7.49754C38.6392 8.21816 38.3713 8.94882 38.07 9.61716C37.758 10.3094 37.2301 10.4969 36.4821 10.3611C36.1182 10.295 35.7603 10.1957 35.3215 10.0932C35.404 10.4849 35.4793 10.8426 35.5546 11.2004Z" fill="#FDC192"/>
<path d="M32.7713 11.5051C33.7466 11.6961 34.6893 11.8829 35.6708 12.0691C36.0699 12.1344 36.4469 12.1562 36.7836 12.2842C36.961 12.3515 37.0679 12.6042 37.2193 12.8046C37.2531 13.0001 37.2425 13.1763 37.3 13.3265C37.9331 14.9783 38.5771 16.626 39.2163 18.2755C39.2427 18.3437 39.2505 18.4191 39.2796 18.5468C38.5493 18.6317 37.8485 18.7184 37.1464 18.7934C36.2515 18.8889 35.3539 18.9617 34.4608 19.0713C34.0888 19.117 33.9227 19.0283 33.8167 18.6343C33.2401 16.4919 32.626 14.3596 32.0134 12.1888C32.0279 12.0666 32.0759 11.9795 32.0759 11.8923C32.0761 11.3797 32.3504 11.3475 32.7713 11.5051Z" fill="#ECEDED"/>
<path d="M24.903 22.1266C25.0835 22.1486 25.2622 22.1889 25.4298 22.2566C26.3917 22.6453 27.351 23.0405 28.3365 23.4574C27.4087 25.2887 26.1311 26.8239 24.4735 28.0222C23.6976 28.5831 22.8745 29.0783 22.0784 29.6118C21.9415 29.7035 21.8333 29.838 21.6735 29.9915C21.6308 30.1202 21.6266 30.2101 21.6224 30.3C21.587 30.5531 21.5517 30.8061 21.4734 31.0987C21.1515 31.0154 20.8724 30.8925 20.5621 30.7651C20.4891 30.754 20.4475 30.7475 20.396 30.7302C20.3548 30.709 20.3336 30.721 20.2972 30.7749C20.0993 30.9728 19.9268 31.1516 19.7543 31.3304C19.534 31.4441 19.3137 31.5579 19.0934 31.6716C19.0765 31.3962 19.0532 31.121 19.044 30.8454C19.021 30.1517 19.0429 29.4533 18.9641 28.7662C18.9363 28.5233 18.6561 28.3153 18.5159 28.0768C18.4458 27.9576 18.4313 27.8056 18.3917 27.6685C18.5369 27.661 18.6935 27.6152 18.8248 27.6543C19.0764 27.7293 19.3136 27.8524 19.6142 27.9855C19.9294 28.0543 20.1872 28.093 20.4451 28.1317C20.904 28.2145 21.1779 27.9485 21.3983 27.6081C22.4281 26.0175 23.453 24.4236 24.4784 22.83C24.6212 22.6081 24.757 22.3818 24.903 22.1266Z" fill="#FDC192"/>
<path d="M57.9188 45.5659C57.869 45.5613 57.8192 45.5568 57.7334 45.564C57.6975 45.5758 57.6909 45.5516 57.695 45.5086C57.7009 45.4244 57.7026 45.3833 57.7081 45.3061C57.9752 44.2589 58.229 43.2479 57.6124 42.224C57.5793 41.8983 57.5479 41.6138 57.5304 41.3012C57.6044 41.2257 57.6635 41.1771 57.7248 41.1314C58.6205 40.4624 59.1267 39.6613 58.847 38.4644C58.6663 37.6913 58.6489 36.8808 58.5445 36.0888C58.4948 35.7116 58.4128 35.3385 58.3454 34.9636C58.358 34.9345 58.3773 34.9109 58.4683 34.8855C59.0018 34.8811 59.4704 34.8842 59.939 34.8873C59.9708 35.2226 59.9758 35.5633 60.0417 35.8919C60.1161 36.2629 60.1491 36.6988 60.3668 36.9751C61.5526 38.4803 61.9747 40.1939 61.9064 42.0677C61.8963 42.3469 61.9097 42.627 61.8938 42.9828C61.8698 43.7885 61.8642 44.518 61.8586 45.2475C61.5462 45.3109 61.2365 45.3982 60.921 45.4321C60.4327 45.4846 59.9406 45.5006 59.3846 45.5208C58.8524 45.5282 58.3856 45.5471 57.9188 45.5659Z" fill="#D4D5D4"/>
<path d="M38.5622 4.36053C37.2803 4.80363 36.0561 4.5843 34.8046 4.00868C34.6066 3.95369 34.4387 3.86646 34.3258 3.91294C33.2129 4.37123 31.9465 4.64192 31.5536 6.07777C31.4201 5.71698 31.3135 5.37788 31.2618 5.0306C31.1078 3.9968 31.376 3.03416 31.8006 2.10335C32.8515 0.754946 34.3093 0.271558 35.9383 0.222478C36.9599 0.191699 37.7596 0.666538 38.3241 1.52337C38.4268 1.67912 38.5663 1.82352 38.6222 1.99489C38.8996 2.84426 39.5269 3.23157 40.357 3.40013C40.6585 3.46134 40.9486 3.59017 41.2348 3.70985C41.3623 3.76318 41.4674 3.87018 41.5456 4.0614C40.8398 4.0614 40.1341 4.0614 39.3661 4.08805C39.0566 4.19665 38.8094 4.27859 38.5622 4.36053Z" fill="#50C3BC"/>
<path d="M41.878 25.6897C41.7784 25.0764 41.7081 24.4772 41.6759 23.8323C42.4514 23.7347 43.03 23.3294 43.6177 22.9394C43.7512 22.8509 43.9097 22.8003 44.0566 22.7322C46.0208 25.1997 47.9849 27.6672 49.9324 30.1812C49.6029 30.5393 49.29 30.8508 48.9772 31.1624C48.0615 30.6776 47.1108 30.2483 46.2379 29.6961C44.609 28.6656 43.2177 27.3578 42.054 25.8147C42.0185 25.7676 41.9568 25.7403 41.878 25.6897Z" fill="#F9AF82"/>
<path d="M44.062 22.7006C43.9104 22.8001 43.7519 22.8508 43.6185 22.9393C43.0307 23.3292 42.4521 23.7346 41.6765 23.7947C41.3664 20.1264 39.8853 16.8843 38.0337 13.7758C37.9306 13.6028 37.8121 13.439 37.689 13.2406C38.3621 13.6189 39.1341 13.9316 39.7135 14.4568C40.7996 15.4412 41.837 16.4961 42.7766 17.6203C43.6351 18.6475 44.3312 19.8097 45.1137 20.9019C45.3021 21.165 45.3066 21.3534 45.0703 21.5866C44.7204 21.9319 44.3998 22.3069 44.062 22.7006Z" fill="#ECEDED"/>
<path d="M51.2317 30.1027C51.2361 29.9456 51.2406 29.7884 51.2722 29.5685C51.303 29.3907 51.3067 29.2755 51.3103 29.1603C51.3103 29.1603 51.3178 29.1515 51.3465 29.1493C51.4073 29.1318 51.4222 29.1065 51.4199 29.071C51.4341 29.0646 51.4484 29.0583 51.5276 29.0609C52.325 29.0692 53.0574 29.0685 53.7898 29.0678C54.2175 29.2552 53.9872 29.6423 54.0561 30.0155C54.1459 30.1622 54.234 30.2933 54.3215 30.2928C54.7834 30.2905 54.9453 30.5408 54.9452 30.9571C54.9248 31.5503 54.9044 32.1436 54.8674 32.8094C54.8515 33.0814 54.8522 33.2808 54.8529 33.4802C54.8377 33.8259 54.8224 34.1716 54.8045 34.582C54.802 34.6624 54.802 34.6783 54.8021 34.6941C54.7575 34.7247 54.7128 34.7553 54.6004 34.7912C53.3134 34.8045 52.0942 34.8126 50.875 34.8206C50.7823 34.3897 50.6675 33.962 50.6042 33.5269C50.5582 33.211 50.5805 32.8852 50.5761 32.482C50.5569 31.7366 50.5338 31.073 50.5107 30.4094C50.7079 30.3475 50.9051 30.2856 51.1575 30.2056C51.2368 30.1633 51.2432 30.135 51.2317 30.1027Z" fill="#FCC241"/>
<path d="M19.7656 31.3711C19.9279 31.1513 20.1004 30.9726 20.3201 30.7768C20.3673 30.7598 20.4069 30.7407 20.4069 30.7407C20.4486 30.7472 20.4902 30.7537 20.5652 30.8044C20.6175 31.0027 20.6365 31.1567 20.6555 31.3106C20.7735 33.7036 20.8857 36.0969 21.0111 38.4895C21.1805 41.722 21.3607 44.9539 21.5349 48.1861C21.5793 49.0097 21.6253 49.8333 21.6553 50.6574C21.664 50.8949 21.6194 51.1344 21.5999 51.3647C20.9276 51.4016 20.8452 51.3367 20.8112 50.7113C20.5771 46.407 20.3472 42.1026 20.1165 37.7982C20.0024 35.6695 19.8894 33.5408 19.7656 31.3711Z" fill="#232141"/>
<path d="M38.5792 4.39858C38.8099 4.27881 39.0571 4.19688 39.3403 4.11877C39.8516 6.28482 40.3416 8.44396 40.7933 10.6111C40.9326 11.2794 40.8861 11.2953 40.2379 11.443C38.8423 11.7612 37.4623 11.5953 36.0876 11.2958C35.937 11.263 35.7849 11.2373 35.5945 11.2045C35.4801 10.843 35.4048 10.4853 35.3224 10.0936C35.7611 10.1961 36.1191 10.2953 36.483 10.3614C37.231 10.4973 37.7589 10.3098 38.0709 9.61751C38.3721 8.94917 38.64 8.21852 38.695 7.49789C38.7721 6.48579 38.6389 5.45767 38.5792 4.39858Z" fill="#232141"/>
<path d="M57.5151 41.3298C57.5465 41.6143 57.5779 41.8988 57.6091 42.2681C57.6106 43.267 57.61 44.1813 57.6177 45.0954C57.6185 45.178 57.6732 45.2602 57.7029 45.3426C57.7012 45.3837 57.6995 45.4249 57.6971 45.497C56.9773 45.5295 56.2582 45.5313 55.4955 45.4805C55.4538 44.7463 55.4432 44.0643 55.4623 43.383C55.4738 42.9696 55.2644 42.7626 54.8913 42.7446C54.3348 42.7178 53.7748 42.7144 53.2187 42.745C52.6854 42.7743 52.4822 43.0185 52.4747 43.5548C52.4682 44.0195 52.4451 44.4865 52.48 44.9486C52.5119 45.3717 52.3496 45.5166 51.9513 45.4489C51.9029 45.3447 51.8151 45.2416 51.8124 45.1362C51.795 44.4609 51.7962 43.785 51.7893 43.0659C51.7963 42.6192 51.811 42.2159 51.8124 41.8126C51.8134 41.5118 51.9454 41.3455 52.2519 41.33C52.9164 41.2963 53.581 41.2624 54.3323 41.2312C54.7972 41.232 55.1753 41.2303 55.5533 41.2285C55.8653 41.2291 56.1772 41.2297 56.5727 41.2309C56.9426 41.2642 57.2288 41.297 57.5151 41.3298Z" fill="#FDCBAD"/>
<path d="M50.8762 34.8614C52.0945 34.8123 53.3137 34.8043 54.5764 34.8033C54.5878 35.9112 54.5459 37.0119 54.529 38.1129C54.5232 38.4913 54.308 38.6095 53.9992 38.6138C53.1436 38.6257 52.2877 38.6186 51.4319 38.6183C51.1264 38.6181 50.9799 38.4633 50.9717 38.1582C50.9427 37.0729 50.909 35.9877 50.8762 34.8614Z" fill="#F6F5F2"/>
<path d="M31.7661 2.10376C31.3755 3.03423 31.1073 3.99687 31.2612 5.03067C31.3129 5.37795 31.4196 5.71705 31.5531 6.07784C31.946 4.64199 33.2124 4.3713 34.3252 3.91301C34.4381 3.86653 34.606 3.95376 34.7688 4.00274C34.6637 4.68713 34.1899 5.09686 33.7034 5.48293C33.612 5.55545 33.3909 5.53742 33.2651 5.48149C32.6081 5.18933 32.1878 5.432 32.1742 6.14807C32.1615 6.81924 32.4485 7.31354 33.1239 7.5834C33.0697 7.86029 33.0173 8.12819 32.9445 8.42791C32.6123 8.14843 32.3089 7.82784 31.9843 7.53037C31.8535 7.41044 31.6814 7.27205 31.5193 7.26007C30.5164 7.18593 29.9455 6.74061 29.7865 5.71883C29.5861 4.4309 29.9827 3.31666 30.9884 2.4633C31.1916 2.29088 31.482 2.22117 31.7661 2.10376Z" fill="#232141"/>
<path d="M20.4517 28.0907C20.1882 28.0929 19.9304 28.0542 19.6519 27.9922C19.4585 24.6568 19.286 21.3445 19.1128 18.0323C19.0839 17.479 19.0526 16.9257 19.0232 16.3288C19.2687 16.2663 19.5134 16.2474 19.792 16.2125C19.8917 17.1709 19.9713 18.1445 20.0209 19.1196C20.1726 22.096 20.3127 25.073 20.4517 28.0907Z" fill="#232141"/>
<path d="M29.4739 31.6422C29.3856 32.6099 29.2118 33.5484 29.2171 34.4859C29.2312 36.9496 29.3233 39.4129 29.3809 41.9165C29.0617 42.0153 28.7458 42.0741 28.3649 42.145C28.0776 38.5479 28.3644 35.016 29.3303 31.5098C29.3901 31.5245 29.43 31.5685 29.4739 31.6422Z" fill="#38A2A0"/>
<path d="M57.5299 41.3013C57.2297 41.2966 56.9435 41.2638 56.616 41.2276C56.4918 39.6419 56.9363 38.2245 57.9155 36.9796C58.1896 36.6311 58.2994 36.2513 58.2661 35.8104C58.2465 35.5501 58.2818 35.2857 58.3187 34.9934C58.4123 35.3387 58.4943 35.7117 58.5441 36.0889C58.6485 36.8809 58.6659 37.6915 58.8465 38.4646C59.1262 39.6614 58.62 40.4626 57.7243 41.1315C57.663 41.1772 57.604 41.2259 57.5299 41.3013Z" fill="#C5C6CF"/>
<path d="M59.94 34.8481C59.4693 34.8842 59.0006 34.8811 58.4879 34.8752C58.5578 34.241 57.9952 34.1515 57.6881 33.9355C58.0183 33.5438 58.2788 33.0778 58.6741 32.8128C59.0268 32.5764 59.5231 32.5051 59.9657 32.463C60.6555 32.3974 61.3534 32.4183 62.071 32.4697C62.093 32.8205 62.0918 33.1042 62.0906 33.3878C61.3329 33.3907 60.678 33.671 60.1453 34.1906C60.0076 34.3249 60.0062 34.599 59.94 34.8481Z" fill="#ECEDED"/>
<path d="M50.4786 30.4027C50.5348 31.0727 50.5579 31.7362 50.5714 32.4404C50.4277 32.5703 50.2562 32.6332 50.169 32.7559C50.068 32.8982 50.0409 33.0931 49.9721 33.2932C49.5537 33.1431 49.5936 32.8048 49.5803 32.5179C49.5566 32.0051 49.4816 31.5275 48.9926 31.1905C49.2907 30.8504 49.6035 30.5388 49.9459 30.21C50.1321 30.2605 50.2888 30.3284 50.4786 30.4027Z" fill="#FDC192"/>
<path d="M61.8915 45.2514C61.8627 44.518 61.8683 43.7885 61.8952 43.0253C62.0936 43.088 62.28 43.1705 62.4462 43.283C63.3114 43.8693 63.34 44.467 62.5181 45.1644C62.3041 45.2074 62.1151 45.2313 61.8915 45.2514Z" fill="#38A2A0"/>
<path d="M52.009 28.3418C52.0112 28.015 52.0067 27.6879 52.0229 27.3618C52.0253 27.3133 52.1209 27.2607 52.1826 27.227C52.2193 27.2069 52.2742 27.221 52.3207 27.2177C53.4549 27.1361 53.4704 27.1523 53.2672 28.2968C52.8191 28.3404 52.414 28.3411 52.009 28.3418Z" fill="#F6F5F2"/>
<path d="M52.0083 28.3811C52.4146 28.3411 52.8196 28.3404 53.2681 28.3358C53.3529 28.491 53.3942 28.65 53.4434 28.8396C53.5309 28.8839 53.6496 28.944 53.7795 29.0359C53.0584 29.0684 52.326 29.0691 51.5516 29.0563C51.6586 28.9797 51.8076 28.9166 52.007 28.832C52.007 28.7139 52.007 28.5671 52.0083 28.3811Z" fill="#FDC192"/>
<path d="M55.5539 41.1862C55.1763 41.2301 54.7982 41.2318 54.3767 41.2274C54.3684 40.9622 54.384 40.6986 54.4432 40.4452C54.5446 40.0116 54.909 40.1295 55.2039 40.116C55.5043 40.1022 55.5631 40.2901 55.5544 40.5396C55.5474 40.7409 55.5533 40.9426 55.5539 41.1862Z" fill="#F1F2F1"/>
<path d="M62.1052 33.4131C62.0913 33.1041 62.0925 32.8205 62.0937 32.4945C62.6894 32.2798 62.7572 32.3256 62.7486 32.9602C62.7449 33.2334 62.698 33.506 62.6386 33.8065C62.528 33.8105 62.4494 33.7868 62.3709 33.7631C62.2873 33.6549 62.2037 33.5467 62.1052 33.4131Z" fill="#D4D5D4"/>
<path d="M20.6788 31.305C20.6351 31.1573 20.6161 31.0033 20.5951 30.8097C20.8721 30.8929 21.1512 31.0158 21.4635 31.136C21.4821 31.2217 21.4945 31.3295 21.4476 31.3945C21.3307 31.5563 21.1868 31.6986 21.0538 31.8487C20.9642 31.6901 20.8763 31.5306 20.7838 31.3738C20.766 31.3435 20.7307 31.3235 20.6788 31.305Z" fill="#FDCBAD"/>
<path d="M62.3718 33.8004C62.4503 33.7871 62.5288 33.8107 62.6369 33.8457C62.7629 34.1381 62.8595 34.4193 62.956 34.7004C62.9079 34.7229 62.8598 34.7454 62.8117 34.7679C62.4839 34.5649 62.4295 34.2002 62.3718 33.8004Z" fill="#ECEDED"/>
<path d="M54.9756 30.9454C54.9464 30.5406 54.7844 30.2904 54.3226 30.2927C54.2351 30.2932 54.1469 30.1621 54.0632 30.0558C54.2593 30.0706 54.4528 30.1161 54.6429 30.173C55.0409 30.2923 55.1822 30.5384 54.9756 30.9454Z" fill="#F6F5F2"/>
<path d="M54.8832 33.4677C54.8528 33.2808 54.8521 33.0814 54.8729 32.8529C54.9006 33.0343 54.9068 33.2448 54.8832 33.4677Z" fill="#F6F5F2"/>
<path d="M51.285 29.1726C51.3074 29.2754 51.3037 29.3906 51.2746 29.5291C51.2524 29.43 51.2556 29.3075 51.285 29.1726Z" fill="#FDC192"/>
<path d="M21.6449 30.279C21.6262 30.2102 21.6304 30.1203 21.6609 30.0225C21.6808 30.0957 21.6744 30.1768 21.6449 30.279Z" fill="#FDCBAD"/>
<path d="M61.1763 53.5714C61.1715 53.5473 61.1895 53.5254 61.225 53.5022C61.2226 53.5201 61.2081 53.5443 61.1763 53.5714Z" fill="#38A2A0"/>
<path d="M51.2147 30.1158C51.2428 30.1351 51.2365 30.1634 51.1919 30.1975C51.1695 30.1775 51.1783 30.1514 51.2147 30.1158Z" fill="#FDC192"/>
<path d="M61.0881 53.6534C61.0814 53.6347 61.1011 53.6135 61.1431 53.584C61.1566 53.6054 61.1396 53.6305 61.0881 53.6534Z" fill="#38A2A0"/>
<path d="M51.4001 29.0764C51.4228 29.1064 51.4079 29.1317 51.3523 29.1467C51.3365 29.1175 51.3535 29.0961 51.4001 29.0764Z" fill="#FDC192"/>
<path d="M54.8188 34.6875C54.8028 34.6779 54.8027 34.6621 54.8122 34.6245C54.8334 34.6205 54.8469 34.6374 54.8553 34.6565C54.8572 34.6609 54.842 34.6728 54.8188 34.6875Z" fill="#F6F5F2"/>
<path d="M35.2325 51.3507C35.4061 53.482 35.55 55.6169 35.6904 57.752C35.7717 58.9882 35.8456 60.2249 35.9288 61.4609C35.9367 61.5782 35.9876 61.6926 36.015 61.848C35.383 61.743 34.745 61.6307 34.1282 61.4471C32.5903 60.9896 31.062 60.4996 29.4929 60.0188C30.0704 59.1184 30.7004 58.232 31.2961 57.3231C32.5408 55.424 33.7671 53.5127 35.0026 51.6075C35.0608 51.5179 35.1348 51.4385 35.2325 51.3507Z" fill="#FCFCFD"/>
<path d="M26.6453 63.367C27.2133 64.1784 27.7613 65.0051 28.3584 65.7946C28.6322 66.1568 29.017 66.433 29.3234 66.7735C29.4985 66.9682 29.7156 67.2033 29.7406 67.4386C29.7927 67.9301 29.4352 68.1399 29.0018 67.9097C27.2074 66.9566 25.4141 66.0011 23.6301 65.0288C23.0519 64.7137 22.9729 64.4896 23.2628 63.8969C23.4707 63.4717 23.7509 63.0721 24.0554 62.7084C24.1793 62.5604 24.4529 62.5376 24.6939 62.4943C24.9893 63.5713 25.908 63.9724 26.6453 63.367Z" fill="#F1F2F1"/>
<path d="M38.6481 65.4446C39.0549 65.6228 39.4763 65.7742 39.8658 65.9846C40.8432 66.5123 41.7679 67.1563 42.9294 67.2376C43.0782 67.2481 43.2237 67.3313 43.3669 67.39C43.6663 67.5126 43.7704 67.7774 43.655 68.0345C43.5783 68.2056 43.331 68.4152 43.1634 68.4123C41.6772 68.3865 40.1921 68.308 38.706 68.2648C38.0709 68.2463 37.4324 68.2465 36.799 68.2902C36.3078 68.3242 36.1263 68.2206 36.1146 67.7347C36.1037 67.2843 36.1011 66.8328 36.1188 66.3827C36.1325 66.0333 36.2374 65.7312 36.7207 65.7559C37.0581 66.1721 37.5872 66.3629 38.0248 66.241C38.4278 66.1286 38.661 65.8828 38.6481 65.4446Z" fill="#F1F2F1"/>
<path d="M38.6438 65.4038C38.661 65.8828 38.4278 66.1287 38.0248 66.241C37.5873 66.363 37.0581 66.1722 36.7558 65.7575C36.7201 64.9234 36.6967 64.1207 36.6743 63.2766C37.3582 63.2284 38.0411 63.2215 38.7647 63.2236C38.7502 63.9427 38.6949 64.6528 38.6438 65.4038Z" fill="#F9AF82"/>
<path d="M26.6497 63.3332C25.907 63.9721 24.9883 63.5711 24.7314 62.4972C25.0176 61.8202 25.3009 61.1764 25.5978 60.4965C26.2933 60.8282 26.9751 61.1961 27.6764 61.5887C27.4217 62.0229 27.1422 62.4291 26.8759 62.8436C26.7853 62.9847 26.7277 63.1471 26.6497 63.3332Z" fill="#FDC192"/>
<path d="M51.9872 45.4724C52.3499 45.516 52.5122 45.3711 52.4803 44.948C52.4454 44.4859 52.4684 44.0189 52.475 43.5542C52.4825 43.0179 52.6857 42.7737 53.219 42.7444C53.7751 42.7138 54.3351 42.7172 54.8916 42.744C55.2647 42.762 55.4741 42.969 55.4626 43.3824C55.4435 44.0637 55.454 44.7457 55.4527 45.4695C54.3098 45.5065 53.1663 45.5015 51.9872 45.4724ZM54.3521 43.4973C53.836 43.5333 53.5688 43.7422 53.539 44.1404C53.5109 44.5172 53.7295 44.7272 54.0599 44.8039C54.4497 44.8943 54.7362 44.7082 54.8667 44.3442C55.0163 43.9268 54.8091 43.6633 54.3521 43.4973Z" fill="#F6F5F2"/>
<path d="M57.9475 45.5849C58.385 45.5472 58.8518 45.5284 59.3428 45.5297C58.9036 45.5678 58.4402 45.5858 57.9475 45.5849Z" fill="#38A2A0"/>
<path d="M20.3956 30.7304C20.4055 30.7412 20.3658 30.7603 20.344 30.7581C20.3332 30.7213 20.3544 30.7092 20.3956 30.7304Z" fill="#FDCBAD"/>
<path d="M57.7073 45.3064C57.6738 45.26 57.6191 45.1779 57.6184 45.0952C57.6106 44.1811 57.6112 43.2669 57.6114 42.3091C58.2282 43.2482 57.9744 44.2592 57.7073 45.3064Z" fill="#C5C6CF"/>
<path d="M54.3881 43.5054C54.8095 43.6637 55.0167 43.9272 54.8671 44.3445C54.7366 44.7086 54.4501 44.8947 54.0603 44.8043C53.7299 44.7276 53.5112 44.5176 53.5394 44.1408C53.5692 43.7425 53.8363 43.5337 54.3881 43.5054Z" fill="#38A2A0"/>
</svg>
