<svg width="32" height="32" viewBox="0 0 32 32" fill="none" xmlns="http://www.w3.org/2000/svg">
<path d="M2.90909 0C1.30182 0 0 1.30182 0 2.90909V29.0909C0 30.6982 1.30182 32 2.90909 32H29.0909C30.6982 32 32 30.6982 32 29.0909V2.90909C32 1.30182 30.6982 0 29.0909 0H2.90909ZM6.76136 7.27273H13.4688L17.3835 12.8693L22.2273 7.27273H24.3381L18.3324 14.2273L25.679 24.7273H18.9716L14.6278 18.517L9.2642 24.7273H7.11932L13.6733 17.1562L6.76136 7.27273ZM10.0057 8.99432L19.8295 22.9972H22.4318L12.6051 8.99432H10.0057Z" fill="white"/>
</svg>
